HIERARCHY
ROOT root
{
	OFFSET	0	13.1	24.9
	CHANNELS 6  Xposition Yposition Zposition Xrotation Yrotation Zrotation
	JOINT spine_1
	{
		OFFSET	0	9.99999	0
		CHANNELS 3  Xrotation Yrotation Zrotation
		JOINT spine_2
		{
			OFFSET	0	112	-10
			CHANNELS 3  Xrotation Yrotation Zrotation
			JOINT spine_3
			{
				OFFSET	0	206.5	19.3
				CHANNELS 3  Xrotation Yrotation Zrotation
				JOINT spine_4
				{
					OFFSET	0	110.4	14.6
					CHANNELS 3  Xrotation Yrotation Zrotation
					JOINT neck_1
					{
						OFFSET	0	71.8	-50.3
						CHANNELS 3  Xrotation Yrotation Zrotation
						JOINT neck_2
						{
							OFFSET	0	86.2	-25.8
							CHANNELS 3  Xrotation Yrotation Zrotation
							JOINT head_ee
							{
								OFFSET	0	179.8	-8.7
								CHANNELS 3  Xrotation Yrotation Zrotation
								End Site
								{
									OFFSET	1	0	0
								}
							}
						}
					}
					JOINT left_clavicle
					{
						OFFSET	-43.2	22.4	-70.8
						CHANNELS 3  Xrotation Yrotation Zrotation
						JOINT left_shoulder
						{
							OFFSET	-93.9	-5.79999	48.7
							CHANNELS 3  Xrotation Yrotation Zrotation
							JOINT left_elbow
							{
								OFFSET	-291.4	-30.8	15.2
								CHANNELS 3  Xrotation Yrotation Zrotation
								JOINT left_lowarm_twist
								{
									OFFSET	-110.7	-3.89999	13.6
									CHANNELS 3  Xrotation Yrotation Zrotation
									JOINT left_hand
									{
										OFFSET	-110.7	-3.89999	13.6
										CHANNELS 3  Xrotation Yrotation Zrotation
										JOINT left_ee
										{
											OFFSET	-80.8	-5.10001	12.1
											CHANNELS 3  Xrotation Yrotation Zrotation
											End Site
											{
												OFFSET	1	0	0
											}
										}
									}
								}
							}
						}
					}
					JOINT right_clavicle
					{
						OFFSET	43.2	22.4	-70.8
						CHANNELS 3  Xrotation Yrotation Zrotation
						JOINT right_shoulder
						{
							OFFSET	93.9	-5.79999	48.7
							CHANNELS 3  Xrotation Yrotation Zrotation
							JOINT right_elbow
							{
								OFFSET	291.4	-30.8	15.2
								CHANNELS 3  Xrotation Yrotation Zrotation
								JOINT right_lowarm_twist
								{
									OFFSET	110.7	-3.89999	13.6
									CHANNELS 3  Xrotation Yrotation Zrotation
									JOINT right_hand
									{
										OFFSET	110.7	-3.89999	13.6
										CHANNELS 3  Xrotation Yrotation Zrotation
										JOINT right_ee
										{
											OFFSET	80.8	-5.10001	12.1
											CHANNELS 3  Xrotation Yrotation Zrotation
											End Site
											{
												OFFSET	1	0	0
											}
										}
									}
								}
							}
						}
					}
				}
			}
		}
	}
	JOINT left_hip
	{
		OFFSET	-82.8	-127.5	0.300001
		CHANNELS 3  Xrotation Yrotation Zrotation
		JOINT left_knee
		{
			OFFSET	-28.2	-396.7	2.2
			CHANNELS 3  Xrotation Yrotation Zrotation
			JOINT left_ankle
			{
				OFFSET	-11.7	-411.3	35.4
				CHANNELS 3  Xrotation Yrotation Zrotation
				JOINT left_toes
				{
					OFFSET	0	-60	-88.6
					CHANNELS 3  Xrotation Yrotation Zrotation
					JOINT left_foot_ee
					{
						OFFSET	-22.5	-16.5	-42.2
						CHANNELS 3  Xrotation Yrotation Zrotation
						End Site
						{
							OFFSET	1	0	0
						}
					}
				}
			}
		}
	}
	JOINT right_hip
	{
		OFFSET	82.8	-127.5	0.300001
		CHANNELS 3  Xrotation Yrotation Zrotation
		JOINT right_knee
		{
			OFFSET	28.2	-396.7	2.2
			CHANNELS 3  Xrotation Yrotation Zrotation
			JOINT right_ankle
			{
				OFFSET	11.7	-411.3	35.4
				CHANNELS 3  Xrotation Yrotation Zrotation
				JOINT right_toes
				{
					OFFSET	0	-60	-88.6
					CHANNELS 3  Xrotation Yrotation Zrotation
					JOINT right_foot_ee
					{
						OFFSET	22.5	-16.5	-42.2
						CHANNELS 3  Xrotation Yrotation Zrotation
						End Site
						{
							OFFSET	1	0	0
						}
					}
				}
			}
		}
	}
}
MOTION
Frames: 13
Frame Time: 0.02
2800.94 716.97 -1473.77 19.2897535331 69.0026354059 -11.9647113433 -4.66883 -0.843676 -5.05107 -4.65479 -0.520982 -5.09436 -4.58313 0.968088 -5.02876 -4.61837 0.162826 -5.11828 -18.8325 12.3995 9.52004 -19.0277 18.8897 13.8014 -0.0 0.0 -0.0 11.0506 8.57557 21.0274 1.7191 -16.3404 75.8479 3.4784 -59.8567 2.00287 15.9433 0.283685 -2.01031 0.482267 2.40825 4.21309 -0.0 0.0 -0.0 5.3358 -3.62229 -10.3947 -12.0604 5.90923 -57.8562 0.380008 10.6611 -0.0354567 4.2118 -0.129239 0.522335 -1.23126 -28.9833 -4.65832 0.0 0.0 0.0 -8.76233 -2.94817 -5.51554 -38.8431 -0.394811 5.83565 41.318 14.7064 -5.04455 7.09975 -0.0 -0.0 -0.0 0.0 -0.0 27.3209 7.40488 0.630772 -22.2853 -0.261495 -3.38833 6.35004 3.42429 0.932197 11.3981 -0.0 -0.0 0.0 0.0 0.0 
2775.91925274 704.832 -1497.7768256 24.6755099766 72.9814491884 -17.974353686 -4.79079 -0.830724 -4.95934 -4.77726 -0.51387 -5.002 -4.70752 0.958973 -4.9362 -4.74147 0.168387 -5.02545 -17.4525 11.7178 6.13164 -17.767 19.1611 10.1669 -0.0 0.0 -0.0 10.7482 8.74799 20.4217 -1.48669 -17.6007 74.2844 3.07058 -56.666 1.6559 13.8872 0.278699 -1.74775 0.621129 -0.956081 3.75697 -0.0 0.0 -0.0 5.82046 -4.28968 -11.3164 -12.1991 9.13642 -56.9782 0.439969 12.2954 -0.0473898 4.70875 -0.141944 0.584545 -0.888573 -28.9718 -6.49936 0.0 0.0 0.0 -8.75687 0.684767 -7.5355 -44.4348 -0.772739 6.60765 39.7023 13.6203 -4.88668 8.79304 -0.0 -0.0 -0.0 0.0 -0.0 29.8962 7.48677 1.12698 -34.9307 0.176145 -5.27574 12.5128 0.920487 1.78275 10.3229 -0.0 -0.0 0.0 0.0 0.0 
2776.35038943 704.832 -1498.21824168 23.3580678587 72.0500817772 -16.5931486927 -4.79079 -0.830724 -4.95934 -4.77726 -0.51387 -5.002 -4.70752 0.958973 -4.9362 -4.74147 0.168387 -5.02545 -17.4525 11.7178 6.13164 -17.767 19.1611 10.1669 -0.0 0.0 -0.0 10.7482 8.74799 20.4217 -1.48669 -17.6007 74.2844 3.07058 -56.666 1.6559 13.8872 0.278699 -1.74775 0.621129 -0.956081 3.75697 -0.0 0.0 -0.0 5.82046 -4.28968 -11.3164 -12.1991 9.13642 -56.9782 0.439969 12.2954 -0.0473898 4.70875 -0.141944 0.584545 -0.888573 -28.9718 -6.49936 0.0 0.0 0.0 -8.75687 0.684767 -7.5355 -44.4348 -0.772739 6.60765 39.7023 13.6203 -4.88668 8.79304 -0.0 -0.0 -0.0 0.0 -0.0 29.8962 7.48677 1.12698 -34.9307 0.176145 -5.27574 12.5128 0.920487 1.78275 10.3229 -0.0 -0.0 0.0 0.0 0.0 
2776.61946197 704.832 -1498.48592399 22.6148475268 71.4727194817 -15.8106261022 -4.79079 -0.830724 -4.95934 -4.77726 -0.51387 -5.002 -4.70752 0.958973 -4.9362 -4.74147 0.168387 -5.02545 -17.4525 11.7178 6.13164 -17.767 19.1611 10.1669 -0.0 0.0 -0.0 10.7482 8.74799 20.4217 -1.48669 -17.6007 74.2844 3.07058 -56.666 1.6559 13.8872 0.278699 -1.74775 0.621129 -0.956081 3.75697 -0.0 0.0 -0.0 5.82046 -4.28968 -11.3164 -12.1991 9.13642 -56.9782 0.439969 12.2954 -0.0473898 4.70875 -0.141944 0.584545 -0.888573 -28.9718 -6.49936 0.0 0.0 0.0 -8.75687 0.684767 -7.5355 -44.4348 -0.772739 6.60765 39.7023 13.6203 -4.88668 8.79304 -0.0 -0.0 -0.0 0.0 -0.0 29.8962 7.48677 1.12698 -34.9307 0.176145 -5.27574 12.5128 0.920487 1.78275 10.3229 -0.0 -0.0 0.0 0.0 0.0 
2777.00167322 704.832 -1498.85629068 21.6490285626 70.6580601849 -14.7895852229 -4.79079 -0.830724 -4.95934 -4.77726 -0.51387 -5.002 -4.70752 0.958973 -4.9362 -4.74147 0.168387 -5.02545 -17.4525 11.7178 6.13164 -17.767 19.1611 10.1669 -0.0 0.0 -0.0 10.7482 8.74799 20.4217 -1.48669 -17.6007 74.2844 3.07058 -56.666 1.6559 13.8872 0.278699 -1.74775 0.621129 -0.956081 3.75697 -0.0 0.0 -0.0 5.82046 -4.28968 -11.3164 -12.1991 9.13642 -56.9782 0.439969 12.2954 -0.0473898 4.70875 -0.141944 0.584545 -0.888573 -28.9718 -6.49936 0.0 0.0 0.0 -8.75687 0.684767 -7.5355 -44.4348 -0.772739 6.60765 39.7023 13.6203 -4.88668 8.79304 -0.0 -0.0 -0.0 0.0 -0.0 29.8962 7.48677 1.12698 -34.9307 0.176145 -5.27574 12.5128 0.920487 1.78275 10.3229 -0.0 -0.0 0.0 0.0 0.0 
2766.27455537 698.497 -1511.42984697 23.0280365544 72.2923912577 -16.4585679645 -4.76143 -0.770079 -4.9104 -4.74814 -0.45645 -4.94932 -4.68471 0.996848 -4.86952 -4.71772 0.216279 -4.96557 -16.351 12.1027 5.89746 -16.6588 19.876 9.88879 -0.0 0.0 -0.0 10.3794 8.9172 19.6954 -2.59357 -17.8981 74.2477 2.90004 -55.1478 1.51466 13.8308 0.278429 -1.74055 0.952319 -0.938495 5.98967 -0.0 0.0 -0.0 6.92641 -5.25472 -13.3942 -13.0693 10.1539 -54.8071 0.541562 15.0175 -0.0713828 5.30382 -0.156447 0.659176 -0.718731 -28.772 -7.3387 0.0 0.0 0.0 -9.35124 2.58793 -8.50457 -45.3416 -0.841082 6.72928 41.0297 12.2695 -4.98733 9.60306 -0.0 -0.0 -0.0 0.0 -0.0 31.0317 7.24803 1.16298 -38.6623 0.383864 -5.81011 13.1595 0.371732 1.86748 9.21788 -0.0 -0.0 0.0 0.0 0.0 
2757.09737837 695.345 -1522.89941954 25.2305609888 75.086056341 -19.0821679107 -4.76247 -0.804046 -4.72999 -4.75017 -0.501786 -4.77144 -4.68578 0.901689 -4.71239 -4.71672 0.147033 -4.79544 -17.0896 11.2393 6.21891 -17.3412 18.1399 9.98904 -0.0 0.0 -0.0 10.1433 8.55741 19.2838 -3.74535 -17.8113 73.2737 2.68817 -53.0859 1.34298 12.4171 0.26936 -1.56021 0.71538 -1.99758 3.95852 -0.0 0.0 -0.0 7.70508 -6.03746 -14.8405 -13.8332 11.7637 -53.0922 0.682599 18.6825 -0.112286 6.95581 -0.192634 0.867094 -0.338846 -28.829 -9.42768 0.0 0.0 0.0 -10.2213 2.45921 -9.22178 -42.7895 -0.653703 6.3843 41.5506 14.5091 -5.06169 10.8056 -0.0 -0.0 -0.0 0.0 -0.0 31.5816 7.3569 1.17307 -41.0095 0.532236 -6.13901 14.5125 1.63075 2.05495 7.12866 -0.0 -0.0 0.0 0.0 0.0 
2742.29793126 691.577 -1532.09399954 30.3336962747 77.0190227895 -24.9791120586 -4.7104 -0.72519 -4.46238 -4.69944 -0.440063 -4.49938 -4.64507 0.878757 -4.43475 -4.67246 0.168091 -4.51768 -16.0922 11.357 5.00403 -16.379 18.9156 8.73513 -0.0 0.0 -0.0 10.604 9.42267 20.0646 -5.07398 -16.997 71.9728 2.39135 -49.8227 1.11073 11.1412 0.257356 -1.39769 0.564996 -1.65281 3.0912 -0.0 0.0 -0.0 8.09659 -7.53556 -15.5051 -15.0985 14.1269 -51.0617 0.869266 23.2969 -0.179204 6.66223 -0.186642 0.830071 -0.224502 -28.8712 -10.068 0.0 0.0 0.0 -10.5997 3.20866 -9.76056 -44.4093 -0.770843 6.60421 41.1416 13.8486 -5.01679 9.40471 -0.0 -0.0 -0.0 0.0 -0.0 31.8711 7.20229 1.71577 -46.0938 0.899235 -6.82936 17.6512 0.109962 2.45597 6.66566 -0.0 -0.0 0.0 0.0 0.0 
2742.07884561 691.577 -1531.87288851 30.8130384238 77.2046788019 -25.4708413977 -4.7104 -0.72519 -4.46238 -4.69944 -0.440063 -4.49938 -4.64507 0.878757 -4.43475 -4.67246 0.168091 -4.51768 -16.0922 11.357 5.00403 -16.379 18.9156 8.73513 -0.0 0.0 -0.0 10.604 9.42267 20.0646 -5.07398 -16.997 71.9728 2.39135 -49.8227 1.11073 11.1412 0.257356 -1.39769 0.564996 -1.65281 3.0912 -0.0 0.0 -0.0 8.09659 -7.53556 -15.5051 -15.0985 14.1269 -51.0617 0.869266 23.2969 -0.179204 6.66223 -0.186642 0.830071 -0.224502 -28.8712 -10.068 0.0 0.0 0.0 -10.5997 3.20866 -9.76056 -44.4093 -0.770843 6.60421 41.1416 13.8486 -5.01679 9.40471 -0.0 -0.0 -0.0 0.0 -0.0 31.8711 7.20229 1.71577 -46.0938 0.899235 -6.82936 17.6512 0.109962 2.45597 6.66566 -0.0 -0.0 0.0 0.0 0.0 
2719.53645307 691.31 -1548.21936783 42.1401179472 80.0546028826 -37.8190089389 -4.61819 -0.546507 -3.87406 -4.6099 -0.299075 -3.90093 -4.57515 0.836045 -3.82213 -4.59546 0.222402 -3.90605 -15.5918 10.7123 4.47603 -15.8374 17.9199 7.92021 -0.0 0.0 -0.0 10.7655 10.0918 20.2882 -6.66655 -15.2604 69.0576 1.7445 -40.8291 0.649319 8.52164 0.221385 -1.06504 0.121888 0.18834 0.892926 -0.0 0.0 -0.0 8.07513 -8.78404 -15.3932 -14.4631 16.8892 -52.6713 1.08339 28.2208 -0.272345 7.88604 -0.210367 0.984597 0.083268 -28.9467 -11.7836 0.0 0.0 0.0 -11.7971 8.14061 -11.8916 -37.9918 -0.343974 5.71508 41.8933 14.6007 -5.09251 9.74828 -0.0 -0.0 -0.0 0.0 -0.0 32.0696 6.65416 1.54329 -50.5248 1.26818 -7.40294 22.149 -1.16515 3.00866 -1.5511 0.0 0.0 0.0 0.0 0.0 
2720.27092066 691.31 -1549.01457098 40.0766664597 79.6309074567 -35.7227246491 -4.61819 -0.546507 -3.87406 -4.6099 -0.299075 -3.90093 -4.57515 0.836045 -3.82213 -4.59546 0.222402 -3.90605 -15.5918 10.7123 4.47603 -15.8374 17.9199 7.92021 -0.0 0.0 -0.0 10.7655 10.0918 20.2882 -6.66655 -15.2604 69.0576 1.7445 -40.8291 0.649319 8.52164 0.221385 -1.06504 0.121888 0.18834 0.892926 -0.0 0.0 -0.0 8.07513 -8.78404 -15.3932 -14.4631 16.8892 -52.6713 1.08339 28.2208 -0.272345 7.88604 -0.210367 0.984597 0.083268 -28.9467 -11.7836 0.0 0.0 0.0 -11.7971 8.14061 -11.8916 -37.9918 -0.343974 5.71508 41.8933 14.6007 -5.09251 9.74828 -0.0 -0.0 -0.0 0.0 -0.0 32.0696 6.65416 1.54329 -50.5248 1.26818 -7.40294 22.149 -1.16515 3.00866 -1.5511 0.0 0.0 0.0 0.0 0.0 
2692.99183361 695.806 -1565.09492362 46.9415274143 81.2706408492 -43.6441855549 -4.55707 -0.411523 -3.32252 -4.55095 -0.199389 -3.34194 -4.52905 0.767903 -3.25872 -4.54378 0.243913 -3.33899 -15.7366 9.70545 5.16924 -15.89 15.6029 8.22285 -0.0 0.0 -0.0 9.85867 12.578 18.2984 -6.45602 -13.6307 69.0158 1.2783 -32.3419 0.370692 7.0961 0.195431 -0.884796 -0.299984 2.28385 -1.03025 -0.0 0.0 -0.0 7.85576 -9.39571 -14.9552 -12.0058 18.3274 -54.4377 1.23875 31.5337 -0.349771 8.1584 -0.215198 1.01905 0.437024 -29.0305 -13.768 0.0 0.0 0.0 -11.5213 10.2381 -13.8656 -37.8021 -0.332894 5.68812 40.5369 15.7702 -4.99284 14.5693 -0.0 -0.0 -0.0 0.0 -0.0 29.8816 6.68156 1.05419 -49.4289 1.1728 -7.26372 27.0602 -3.05576 3.57201 -8.1336 0.0 0.0 0.0 0.0 0.0 
2682.47047841 702.673 -1572.86304441 46.6730821049 82.2915016715 -43.86503672 -4.35531 -0.296569 -3.04315 -4.35016 -0.102417 -3.05584 -4.33663 0.768756 -2.95942 -4.34873 0.291952 -3.04359 -13.9415 10.2052 4.47232 -14.0966 16.7469 7.47317 -0.0 0.0 -0.0 10.049 11.8256 18.7362 -8.66946 -12.9498 67.3994 1.11945 -29.0094 0.289616 6.62208 0.185807 -0.825009 -0.356972 2.43693 -1.343 -0.0 0.0 -0.0 7.8609 -9.80037 -14.9405 -12.2658 20.7916 -54.1009 1.29251 32.6288 -0.378323 8.43118 -0.219872 1.05358 0.417942 -28.8203 -13.5946 0.0 0.0 0.0 -10.9572 12.248 -14.3235 -35.1811 -0.18899 5.31201 42.2984 15.903 -5.1486 16.2892 -0.0 -0.0 -0.0 0.0 -0.0 30.5128 5.78586 1.0914 -50.12 1.23264 -7.35173 26.25 -4.95187 3.47553 -9.7259 0.0 0.0 0.0 0.0 0.0 
